<svg id="_08_Mango" enable-background="new 0 0 512 512" viewBox="0 0 512 512" xmlns="http://www.w3.org/2000/svg" xmlns:xlink="http://www.w3.org/1999/xlink"><linearGradient id="SVGID_1_" gradientTransform="matrix(1 0 0 -1 0 514)" gradientUnits="userSpaceOnUse" x1="86.587" x2="312.377" y1="376.489" y2="149.378"><stop offset="0" stop-color="#fac600"/><stop offset=".2024" stop-color="#fac102"/><stop offset=".412" stop-color="#fab508"/><stop offset=".6251" stop-color="#fba013"/><stop offset=".8391" stop-color="#fc8322"/><stop offset="1" stop-color="#fd6930"/></linearGradient><linearGradient id="lg1"><stop offset="0" stop-color="#ef4424" stop-opacity="0"/><stop offset=".1245" stop-color="#ef4424" stop-opacity=".017"/><stop offset=".2537" stop-color="#ef4424" stop-opacity=".07"/><stop offset=".385" stop-color="#ef4424" stop-opacity=".156"/><stop offset=".5177" stop-color="#ef4424" stop-opacity=".278"/><stop offset=".6517" stop-color="#ef4424" stop-opacity=".435"/><stop offset=".7866" stop-color="#ef4424" stop-opacity=".627"/><stop offset=".9198" stop-color="#ef4424" stop-opacity=".85"/><stop offset="1" stop-color="#ef4424"/></linearGradient><linearGradient id="SVGID_00000065761340013844166680000007556685788910171318_" gradientTransform="matrix(1 0 0 -1 0 514)" gradientUnits="userSpaceOnUse" x1="209.422" x2="196.548" xlink:href="#lg1" y1="183.571" y2="24.132"/><linearGradient id="SVGID_00000129927842393873250640000005366594529064731791_" gradientTransform="matrix(1 0 0 -1 0 514)" gradientUnits="userSpaceOnUse" x1="213.028" x2="306.117" xlink:href="#lg1" y1="227.683" y2="79.137"/><linearGradient id="SVGID_00000114034967758344458790000011253936906919271346_" gradientTransform="matrix(1 0 0 -1 0 514)" gradientUnits="userSpaceOnUse" x1="255.033" x2="447.76" xlink:href="#lg1" y1="272.226" y2="272.226"/><linearGradient id="SVGID_00000013898470955627805240000010154823459475891607_" gradientTransform="matrix(1 0 0 -1 0 514)" gradientUnits="userSpaceOnUse" x1="332.121" x2="372.398" y1="198.396" y2="170.95"><stop offset="0" stop-color="#fef48b" stop-opacity="0"/><stop offset=".1207" stop-color="#fef38b" stop-opacity=".016"/><stop offset=".2459" stop-color="#fef38d" stop-opacity=".065"/><stop offset=".3731" stop-color="#fef390" stop-opacity=".147"/><stop offset=".5018" stop-color="#fef294" stop-opacity=".262"/><stop offset=".6317" stop-color="#fef299" stop-opacity=".41"/><stop offset=".7625" stop-color="#fef19f" stop-opacity=".59"/><stop offset=".8916" stop-color="#fef0a7" stop-opacity=".8"/><stop offset="1" stop-color="#fef0ae"/></linearGradient><linearGradient id="SVGID_00000043449326887434446660000002227322476137476781_" gradientTransform="matrix(1 0 0 -1 0 514)" gradientUnits="userSpaceOnUse" x1="380.135" x2="356.789" xlink:href="#lg1" y1="199.689" y2="200.223"/><linearGradient id="SVGID_00000000940321681518722350000011918357758114156418_" gradientTransform="matrix(1 0 0 -1 0 514)" gradientUnits="userSpaceOnUse" x1="282.181" x2="252.908" xlink:href="#lg1" y1="398.552" y2="473.6"/><linearGradient id="SVGID_00000100344006165478496790000002895718401368559800_" gradientTransform="matrix(1 0 0 -1 0 514)" gradientUnits="userSpaceOnUse" x1="284.73" x2="274.496" xlink:href="#lg1" y1="447.822" y2="409.53"/><linearGradient id="SVGID_00000095320117165891782860000006071790255755311774_" gradientTransform="matrix(.219 .976 -.976 .219 2122.367 -885.404)" gradientUnits="userSpaceOnUse" x1="475.718" x2="540.4" y1="2063.003" y2="2044.522"><stop offset="0" stop-color="#78a91f"/><stop offset=".1783" stop-color="#73a720"/><stop offset=".363" stop-color="#67a225"/><stop offset=".5508" stop-color="#529a2d"/><stop offset=".7406" stop-color="#358f39"/><stop offset=".9303" stop-color="#108147"/><stop offset="1" stop-color="#017b4e"/></linearGradient><linearGradient id="lg2"><stop offset="0" stop-color="#3e5959" stop-opacity="0"/><stop offset=".207" stop-color="#3e5959" stop-opacity=".047"/><stop offset=".4215" stop-color="#3e5959" stop-opacity=".187"/><stop offset=".6395" stop-color="#3e5959" stop-opacity=".419"/><stop offset=".8584" stop-color="#3e5959" stop-opacity=".743"/><stop offset="1" stop-color="#3e5959"/></linearGradient><linearGradient id="SVGID_00000153700393857086422980000016237766925590269879_" gradientTransform="matrix(1 0 0 -1 0 514)" gradientUnits="userSpaceOnUse" x1="244.659" x2="273.944" xlink:href="#lg2" y1="450.729" y2="440.393"/><linearGradient id="SVGID_00000173149683823330235910000010512034826038811295_" gradientTransform="matrix(.219 .976 -.976 .219 2122.367 -885.404)" gradientUnits="userSpaceOnUse" x1="504.651" x2="522.208" xlink:href="#lg2" y1="2074.543" y2="2009.398"/><linearGradient id="SVGID_00000068674151090218725540000006411934908839640193_" gradientTransform="matrix(.219 .976 -.976 .219 2122.367 -885.404)" gradientUnits="userSpaceOnUse" x1="504.176" x2="515.265" xlink:href="#lg2" y1="2099.626" y2="2048.342"/><linearGradient id="SVGID_00000049941582273341327140000014675051666346254212_" gradientTransform="matrix(.219 .976 -.976 .219 2122.367 -885.404)" gradientUnits="userSpaceOnUse" x1="534.972" x2="489.695" xlink:href="#lg2" y1="2055.177" y2="2053.791"/><linearGradient id="SVGID_00000084508619760187677680000005151587563005343668_" gradientTransform="matrix(.96 .279 .279 -.96 -158.084 403.167)" gradientUnits="userSpaceOnUse" x1="325.181" x2="340.892" y1="490.178" y2="480.576"><stop offset="0" stop-color="#bb5d4c"/><stop offset=".2756" stop-color="#b65a49"/><stop offset=".5612" stop-color="#aa5342"/><stop offset=".8504" stop-color="#954736"/><stop offset="1" stop-color="#883f2e"/></linearGradient><linearGradient id="lg3"><stop offset="0" stop-color="#fef48b"/><stop offset=".1646" stop-color="#fdf286"/><stop offset=".3352" stop-color="#fdee7a"/><stop offset=".5086" stop-color="#fce765"/><stop offset=".6839" stop-color="#fcde48"/><stop offset=".8589" stop-color="#fbd123"/><stop offset="1" stop-color="#fac600"/></linearGradient><linearGradient id="SVGID_00000162343639745247234610000006615248224141380518_" gradientTransform="matrix(-1 0 0 -1 1396.771 514)" gradientUnits="userSpaceOnUse" x1="901.941" x2="973.679" xlink:href="#lg3" y1="199.218" y2="106.572"/><linearGradient id="lg4"><stop offset="0" stop-color="#fe9738" stop-opacity="0"/><stop offset=".1207" stop-color="#fe9738" stop-opacity=".016"/><stop offset=".2459" stop-color="#fe9738" stop-opacity=".065"/><stop offset=".3731" stop-color="#fe9738" stop-opacity=".147"/><stop offset=".5018" stop-color="#fe9738" stop-opacity=".262"/><stop offset=".6317" stop-color="#fe9738" stop-opacity=".41"/><stop offset=".7625" stop-color="#fe9738" stop-opacity=".59"/><stop offset=".8916" stop-color="#fe9738" stop-opacity=".8"/><stop offset="1" stop-color="#fe9738"/></linearGradient><linearGradient id="SVGID_00000163766437180170874270000014717801166785553291_" gradientTransform="matrix(-1 0 0 -1 1396.771 514)" gradientUnits="userSpaceOnUse" x1="951.353" x2="960.366" xlink:href="#lg4" y1="159.627" y2="106.995"/><linearGradient id="SVGID_00000116920231434064147380000008798746234232472236_" gradientTransform="matrix(-1 0 0 -1 1396.771 514)" gradientUnits="userSpaceOnUse" x1="970.027" x2="966.602" xlink:href="#lg4" y1="160.642" y2="124.953"/><linearGradient id="SVGID_00000083781118565731072420000014361577691655230609_" gradientTransform="matrix(-1 0 0 -1 1396.771 514)" gradientUnits="userSpaceOnUse" x1="934.524" x2="977.602" xlink:href="#lg4" y1="150.875" y2="150.695"/><linearGradient id="SVGID_00000016051269559657439590000016461176085880495258_" gradientTransform="matrix(-1 0 0 -1 1396.771 514)" gradientUnits="userSpaceOnUse" x1="971.59" x2="1027.106" xlink:href="#lg3" y1="230.372" y2="132.319"/><linearGradient id="SVGID_00000177457460384042564770000001373276434379451009_" gradientTransform="matrix(-1 0 0 -1 1396.771 514)" gradientUnits="userSpaceOnUse" x1="1004.285" x2="1008.131" xlink:href="#lg4" y1="194.076" y2="116.45"/><linearGradient id="SVGID_00000113329890144913890410000015905901496718612412_" gradientTransform="matrix(-1 0 0 -1 1396.771 514)" gradientUnits="userSpaceOnUse" x1="1016.195" x2="1030.614" xlink:href="#lg4" y1="233.477" y2="114.515"/><linearGradient id="SVGID_00000055709372217026334550000014242770292117990579_" gradientTransform="matrix(-1 0 0 -1 1396.771 514)" gradientUnits="userSpaceOnUse" x1="991.118" x2="1041.106" xlink:href="#lg4" y1="171.708" y2="169.305"/><linearGradient id="SVGID_00000183941666478378416460000007961475385928076703_" gradientTransform="matrix(-1 0 0 -1 1396.771 514)" gradientUnits="userSpaceOnUse" x1="872.565" x2="973.502" xlink:href="#lg3" y1="133.985" y2="61.527"/><linearGradient id="SVGID_00000154415099018696922330000000783333968654490289_" gradientTransform="matrix(-1 0 0 -1 1396.771 514)" gradientUnits="userSpaceOnUse" x1="961.014" x2="961.976" xlink:href="#lg4" y1="85.042" y2="54.521"/><linearGradient id="SVGID_00000109022945771453206810000002145949348493329077_" gradientTransform="matrix(-1 0 0 -1 1396.771 514)" gradientUnits="userSpaceOnUse" x1="941.622" x2="976.709" xlink:href="#lg4" y1="127.791" y2="42.234"/><linearGradient id="SVGID_00000101065884306700766630000016190938785460709567_" gradientTransform="matrix(-1 0 0 -1 1396.771 514)" gradientUnits="userSpaceOnUse" x1="935.049" x2="960.765" xlink:href="#lg4" y1="82.959" y2="87.044"/><linearGradient id="SVGID_00000150821681462231060560000012285828442000501633_" gradientTransform="matrix(-1 0 0 -1 1396.771 514)" gradientUnits="userSpaceOnUse" x1="873.738" x2="967.465" xlink:href="#lg3" y1="99.03" y2="31.979"/><linearGradient id="SVGID_00000011017864838254996160000003026339307480707495_" gradientTransform="matrix(-1 0 0 -1 1396.771 514)" gradientUnits="userSpaceOnUse" x1="913.532" x2="959.434" xlink:href="#lg4" y1="89.502" y2="39.274"/><linearGradient id="SVGID_00000145040191324193986680000016705683949891923091_" gradientTransform="matrix(-1 0 0 -1 1396.771 514)" gradientUnits="userSpaceOnUse" x1="915.883" x2="1025.472" xlink:href="#lg3" y1="196.021" y2="59.394"/><linearGradient id="SVGID_00000174590155988626583930000001834344147659936412_" gradientTransform="matrix(-1 0 0 -1 1396.771 514)" gradientUnits="userSpaceOnUse" x1="1005.98" x2="1000.573" xlink:href="#lg4" y1="139.783" y2="35.241"/><linearGradient id="SVGID_00000168828514501725851920000010637288815885633960_" gradientTransform="matrix(-1 0 0 -1 1500.947 514)" gradientUnits="userSpaceOnUse" x1="1089.279" x2="1131.277" xlink:href="#lg3" y1="58.568" y2="30.99"/><linearGradient id="SVGID_00000034063794627866817560000016872832952582629549_" gradientTransform="matrix(-1 0 0 -1 1500.947 514)" gradientUnits="userSpaceOnUse" x1="1080.622" x2="1139.022" xlink:href="#lg4" y1="55.558" y2="28.341"/><linearGradient id="SVGID_00000108309708126281761760000009617352455641693086_" gradientTransform="matrix(-1 0 0 -1 1396.771 514)" gradientUnits="userSpaceOnUse" x1="1002.151" x2="1037.118" xlink:href="#lg4" y1="152.38" y2="40.267"/><linearGradient id="SVGID_00000062913379668568155830000004413652330784478614_" gradientTransform="matrix(-1 0 0 -1 1396.771 514)" gradientUnits="userSpaceOnUse" x1="994.613" x2="1029.22" xlink:href="#lg4" y1="96.499" y2="96.499"/><linearGradient id="SVGID_00000115492990452411131230000007153122604282579362_" gradientTransform="matrix(-1 0 0 -1 1396.771 514)" gradientUnits="userSpaceOnUse" x1="922.606" x2="952.527" xlink:href="#lg3" y1="166.264" y2="126.971"/><linearGradient id="SVGID_00000101807787258981083480000006048569668337387937_" gradientTransform="matrix(-1 0 0 -1 1396.771 514)" gradientUnits="userSpaceOnUse" x1="972.949" x2="1021.976" xlink:href="#lg3" y1="200.944" y2="158.046"/><linearGradient id="SVGID_00000087380560133173208660000015660733804076844692_" gradientTransform="matrix(-1 0 0 -1 1396.771 514)" gradientUnits="userSpaceOnUse" x1="916.106" x2="953.236" xlink:href="#lg3" y1="109.931" y2="65.59"/><linearGradient id="SVGID_00000031173205532495422580000001360745612892453552_" gradientTransform="matrix(-1 0 0 -1 1396.771 514)" gradientUnits="userSpaceOnUse" x1="958.838" x2="1000.294" xlink:href="#lg3" y1="144.913" y2="75.698"/><linearGradient id="SVGID_00000165232108486172751620000010253603148445405097_" gradientTransform="matrix(-1 0 0 -1 1396.771 514)" gradientUnits="userSpaceOnUse" x1="912.044" x2="965.037" xlink:href="#lg3" y1="83.585" y2="22.302"/><linearGradient id="SVGID_00000024704796016070018790000013677056418058952320_" gradientTransform="matrix(-1 0 0 -1 1396.771 514)" gradientUnits="userSpaceOnUse" x1="958.778" x2="1024.027" xlink:href="#lg3" y1="78.539" y2="1.935"/><linearGradient id="SVGID_00000018219060639878680670000008312766373409017997_" gradientTransform="matrix(1 0 0 -1 0 514)" gradientUnits="userSpaceOnUse" x1="162.768" x2="234.506" xlink:href="#lg3" y1="199.218" y2="106.572"/><linearGradient id="SVGID_00000057120304140996357640000008349285162816719268_" gradientTransform="matrix(1 0 0 -1 0 514)" gradientUnits="userSpaceOnUse" x1="212.181" x2="221.193" xlink:href="#lg4" y1="159.627" y2="106.995"/><linearGradient id="SVGID_00000063591937002148873170000001308560017347851967_" gradientTransform="matrix(1 0 0 -1 0 514)" gradientUnits="userSpaceOnUse" x1="230.854" x2="227.43" xlink:href="#lg4" y1="160.642" y2="124.953"/><linearGradient id="SVGID_00000027603710513044250900000007970601033235507584_" gradientTransform="matrix(1 0 0 -1 0 514)" gradientUnits="userSpaceOnUse" x1="195.351" x2="238.43" xlink:href="#lg4" y1="150.875" y2="150.695"/><linearGradient id="SVGID_00000002376587432893398730000011699560686643742365_" gradientTransform="matrix(1 0 0 -1 0 514)" gradientUnits="userSpaceOnUse" x1="232.418" x2="287.933" xlink:href="#lg3" y1="230.372" y2="132.319"/><linearGradient id="SVGID_00000125601803915096192330000003095081959272146843_" gradientTransform="matrix(1 0 0 -1 0 514)" gradientUnits="userSpaceOnUse" x1="265.113" x2="268.958" xlink:href="#lg4" y1="194.076" y2="116.45"/><linearGradient id="SVGID_00000139257819610286523530000010401453561865509817_" gradientTransform="matrix(1 0 0 -1 0 514)" gradientUnits="userSpaceOnUse" x1="277.022" x2="291.442" xlink:href="#lg4" y1="233.477" y2="114.515"/><linearGradient id="SVGID_00000178915694256970003470000018005665273374503594_" gradientTransform="matrix(1 0 0 -1 0 514)" gradientUnits="userSpaceOnUse" x1="251.945" x2="301.933" xlink:href="#lg4" y1="171.708" y2="169.305"/><linearGradient id="SVGID_00000153706305284156147100000009074083603607494329_" gradientTransform="matrix(1 0 0 -1 0 514)" gradientUnits="userSpaceOnUse" x1="133.392" x2="234.33" xlink:href="#lg3" y1="133.985" y2="61.527"/><linearGradient id="SVGID_00000139989064121235751800000014795766673145167038_" gradientTransform="matrix(1 0 0 -1 0 514)" gradientUnits="userSpaceOnUse" x1="221.842" x2="222.803" xlink:href="#lg4" y1="85.042" y2="54.521"/><linearGradient id="SVGID_00000033344938159279868710000016574144024254342842_" gradientTransform="matrix(1 0 0 -1 0 514)" gradientUnits="userSpaceOnUse" x1="202.449" x2="237.537" xlink:href="#lg4" y1="127.791" y2="42.234"/><linearGradient id="SVGID_00000132788156509356170180000006280048224203198881_" gradientTransform="matrix(1 0 0 -1 0 514)" gradientUnits="userSpaceOnUse" x1="195.877" x2="221.592" xlink:href="#lg4" y1="82.959" y2="87.044"/><linearGradient id="SVGID_00000065761508717968945560000009780750415408224155_" gradientTransform="matrix(1 0 0 -1 0 514)" gradientUnits="userSpaceOnUse" x1="134.565" x2="228.293" xlink:href="#lg3" y1="99.03" y2="31.979"/><linearGradient id="SVGID_00000011012295327629005050000008038441731143547014_" gradientTransform="matrix(1 0 0 -1 0 514)" gradientUnits="userSpaceOnUse" x1="174.359" x2="220.262" xlink:href="#lg4" y1="89.502" y2="39.274"/><linearGradient id="SVGID_00000043455903943577860410000006202598119804642477_" gradientTransform="matrix(1 0 0 -1 0 514)" gradientUnits="userSpaceOnUse" x1="176.71" x2="286.3" xlink:href="#lg3" y1="196.021" y2="59.394"/><linearGradient id="SVGID_00000120547209612752619320000004000192299069459612_" gradientTransform="matrix(1 0 0 -1 0 514)" gradientUnits="userSpaceOnUse" x1="266.807" x2="261.4" xlink:href="#lg4" y1="139.783" y2="35.241"/><linearGradient id="SVGID_00000013177510728177507030000016444345975015610526_" gradientTransform="matrix(1 0 0 -1 0 514)" gradientUnits="userSpaceOnUse" x1="245.93" x2="287.928" xlink:href="#lg3" y1="58.568" y2="30.99"/><linearGradient id="SVGID_00000093170519057816598670000005713555639284562095_" gradientTransform="matrix(1 0 0 -1 0 514)" gradientUnits="userSpaceOnUse" x1="237.273" x2="295.673" xlink:href="#lg4" y1="55.558" y2="28.341"/><linearGradient id="SVGID_00000024706027628535549180000012307335395240852097_" gradientTransform="matrix(1 0 0 -1 0 514)" gradientUnits="userSpaceOnUse" x1="262.978" x2="297.946" xlink:href="#lg4" y1="152.38" y2="40.267"/><linearGradient id="SVGID_00000147180602787839532710000001850066212267832448_" gradientTransform="matrix(1 0 0 -1 0 514)" gradientUnits="userSpaceOnUse" x1="255.441" x2="290.048" xlink:href="#lg4" y1="96.499" y2="96.499"/><linearGradient id="SVGID_00000043444690906370385240000016097591611725933241_" gradientTransform="matrix(1 0 0 -1 0 514)" gradientUnits="userSpaceOnUse" x1="183.434" x2="213.355" xlink:href="#lg3" y1="166.264" y2="126.971"/><linearGradient id="SVGID_00000151524597716868727200000017965609947059262884_" gradientTransform="matrix(1 0 0 -1 0 514)" gradientUnits="userSpaceOnUse" x1="233.777" x2="282.803" xlink:href="#lg3" y1="200.944" y2="158.046"/><linearGradient id="SVGID_00000163754551070814126470000007197878001068442517_" gradientTransform="matrix(1 0 0 -1 0 514)" gradientUnits="userSpaceOnUse" x1="176.933" x2="214.064" xlink:href="#lg3" y1="109.931" y2="65.59"/><linearGradient id="SVGID_00000044889223632394604500000001298261285308432057_" gradientTransform="matrix(1 0 0 -1 0 514)" gradientUnits="userSpaceOnUse" x1="219.665" x2="261.122" xlink:href="#lg3" y1="144.913" y2="75.698"/><linearGradient id="SVGID_00000093894282180951172630000003105375704421109379_" gradientTransform="matrix(1 0 0 -1 0 514)" gradientUnits="userSpaceOnUse" x1="172.872" x2="225.864" xlink:href="#lg3" y1="83.585" y2="22.302"/><linearGradient id="SVGID_00000084526961083520309470000005833382635544635800_" gradientTransform="matrix(1 0 0 -1 0 514)" gradientUnits="userSpaceOnUse" x1="219.606" x2="284.854" xlink:href="#lg3" y1="78.539" y2="1.935"/><linearGradient id="SVGID_00000002371669680614399860000012580767407661235888_" gradientTransform="matrix(1 0 0 -1 0 514)" gradientUnits="userSpaceOnUse" x1="321.061" x2="336.021" xlink:href="#lg3" y1="204.824" y2="138.674"/><linearGradient id="SVGID_00000060014895751311767110000018297111028343983490_" gradientTransform="matrix(1 0 0 -1 0 514)" gradientUnits="userSpaceOnUse" x1="277.515" x2="362.952" xlink:href="#lg4" y1="177.73" y2="134.11"/><linearGradient id="SVGID_00000053530953851148880050000018185817521077343661_" gradientTransform="matrix(1 0 0 -1 0 514)" gradientUnits="userSpaceOnUse" x1="328.8" x2="328.8" xlink:href="#lg4" y1="164.934" y2="146.102"/><linearGradient id="SVGID_00000036951054472125062090000015925885987774495880_" gradientTransform="matrix(1 0 0 -1 0 514)" gradientUnits="userSpaceOnUse" x1="288.673" x2="368.928" xlink:href="#lg3" y1="198.204" y2="198.204"/><linearGradient id="SVGID_00000118362620930038549510000002032523573661776019_" gradientTransform="matrix(1 0 0 -1 0 514)" gradientUnits="userSpaceOnUse" x1="311.599" x2="359.905" xlink:href="#lg3" y1="120.247" y2="46.707"/><linearGradient id="SVGID_00000162327808839736601650000014304957859222086549_" gradientTransform="matrix(1 0 0 -1 0 514)" gradientUnits="userSpaceOnUse" x1="276.701" x2="358.653" xlink:href="#lg4" y1="119.732" y2="63.735"/><linearGradient id="SVGID_00000018202002058316571980000002659893725103126657_" gradientTransform="matrix(1 0 0 -1 0 514)" gradientUnits="userSpaceOnUse" x1="328.799" x2="328.799" xlink:href="#lg4" y1="86.948" y2="64.036"/><linearGradient id="SVGID_00000085238679744335772500000000623284833524764078_" gradientTransform="matrix(1 0 0 -1 0 514)" gradientUnits="userSpaceOnUse" x1="297.696" x2="357.537" xlink:href="#lg3" y1="163.086" y2="79.452"/><linearGradient id="SVGID_00000031197625363273471120000003368828142225263290_" gradientTransform="matrix(1 0 0 -1 0 514)" gradientUnits="userSpaceOnUse" x1="306.817" x2="351.998" xlink:href="#lg3" y1="82.161" y2="-1.714"/><linearGradient id="SVGID_00000060716300053026309020000012084201222062548909_" gradientTransform="matrix(1 0 0 -1 0 514)" gradientUnits="userSpaceOnUse" x1="316.608" x2="302.188" xlink:href="#lg1" y1="49.138" y2="-10.463"/><linearGradient id="SVGID_00000081640473247157432840000010740211361154712762_" gradientTransform="matrix(1 0 0 -1 0 514)" gradientUnits="userSpaceOnUse" x1="339.716" x2="359.423" xlink:href="#lg1" y1="54.522" y2="-26.708"/><g><g><g><path d="m404.1 209.9c2.1 95.5-72.4 187.3-182.9 216.2-59.3 15.5-118.4 10.2-167.4-11.1-20-8.7-32.9-28.5-32.9-50.3v-1.2c0-16.7 7.9-32.3 20.9-42.6 28-22.1 46-56.3 46.8-94.2.1-6 .3-12.4.3-19.1.2-86.7 69.7-158.2 156.4-158.8 87.7-.8 158.9 70 158.9 157.4 0 1.2 0 2.4-.1 3.7z" fill="url(#SVGID_1_)"/><path d="m89 207.4c0 6.7-.2 13.1-.3 19.1-.8 37.9-18.7 72.1-46.8 94.2-13.1 10.4-20.9 26-20.9 42.7v1.2c0 21.8 12.9 41.6 32.9 50.3 49 21.3 108.1 26.6 167.4 11.1 110.5-28.9 185-120.7 182.9-216.2 0-1.2 0-2.4 0-3.7 0-5.7-.3-11.3-.9-16.8h-313.2c-.7 6-1.1 12-1.1 18.1z" fill="url(#SVGID_00000065761340013844166680000007556685788910171318_)"/><path d="m89 207.4c0 6.7-.2 13.1-.3 19.1-.8 37.9-18.7 72.1-46.8 94.2-13.1 10.4-20.9 26-20.9 42.7v1.2c0 21.8 12.9 41.6 32.9 50.3 49 21.3 108.1 26.6 167.4 11.1 110.5-28.9 185-120.7 182.9-216.2 0-1.2 0-2.4 0-3.7 0-5.7-.3-11.3-.9-16.8h-313.2c-.7 6-1.1 12-1.1 18.1z" fill="url(#SVGID_00000129927842393873250640000005366594529064731791_)"/><path d="m245.4 48.6c-35 .3-67.1 12-93.1 31.7v354.7c22.5 0 45.7-2.8 68.9-8.9 110.5-28.9 185-120.7 182.9-216.2 0-1.2 0-2.4 0-3.7.1-87.4-71.1-158.2-158.7-157.6z" fill="url(#SVGID_00000114034967758344458790000011253936906919271346_)"/><path d="m245.4 48.6c-35 .3-67.1 12-93.1 31.7v354.7c22.5 0 45.7-2.8 68.9-8.9 110.5-28.9 185-120.7 182.9-216.2 0-1.2 0-2.4 0-3.7.1-87.4-71.1-158.2-158.7-157.6z" fill="url(#SVGID_00000013898470955627805240000010154823459475891607_)"/><path d="m378.4 309-19.8-19.8v49.3c7.4-9.4 14.1-19.3 19.8-29.5z" fill="url(#SVGID_00000043449326887434446660000002227322476137476781_)"/><path d="m404.1 209.9c0-1.2 0-2.4 0-3.7 0-87.4-71.2-158.2-158.8-157.6-22.5.2-43.9 5.1-63.1 13.8l-13.7 13.7 217.6 217.6c12.3-26.5 18.7-55 18-83.8z" fill="url(#SVGID_00000000940321681518722350000011918357758114156418_)"/><path d="m245.4 48.6c-.1 0-.2 0-.3 0-.4 2-.6 4.1-.6 6.2 0 20.1 19.6 36.5 43.9 36.5 17.2 0 32.1-8.3 39.3-20.3-24-14.4-52.2-22.6-82.3-22.4z" fill="url(#SVGID_00000100344006165478496790000002895718401368559800_)"/></g><g><path d="m168.6 76.1c-2.7-2.6-3.6-6.5-2.2-9.9 8.9-22.8 28.2-40.9 53.5-46.5s50.5 2.4 68.2 19.3c2.7 2.6 3.6 6.5 2.2 9.9-8.9 22.8-28.2 40.9-53.5 46.5s-50.4-2.4-68.2-19.3z" fill="url(#SVGID_00000095320117165891782860000006071790255755311774_)"/><path d="m168.6 76.1c-2.7-2.6-3.6-6.5-2.2-9.9 8.9-22.8 28.2-40.9 53.5-46.5s50.5 2.4 68.2 19.3c2.7 2.6 3.6 6.5 2.2 9.9-8.9 22.8-28.2 40.9-53.5 46.5s-50.4-2.4-68.2-19.3z" fill="url(#SVGID_00000153700393857086422980000016237766925590269879_)"/><path d="m168.6 76.1c-2.7-2.6-3.6-6.5-2.2-9.9 7.2-18.5 21.2-33.8 39.6-41.9 20.2-.5 39.4 7.4 53.7 21 2.7 2.6 3.6 6.5 2.2 9.9-7.2 18.5-21.2 33.8-39.6 41.9-20.1.5-39.3-7.3-53.7-21z" fill="url(#SVGID_00000173149683823330235910000010512034826038811295_)"/><path d="m168.6 76.1c-2.7-2.6-3.6-6.5-2.2-9.9 4.4-11.3 11.4-21.5 20.4-29.5 11.6 3.4 22.2 9.6 31 18 2.7 2.6 3.6 6.5 2.2 9.9-4.4 11.3-11.4 21.5-20.4 29.5-11.5-3.4-22.2-9.6-31-18z" fill="url(#SVGID_00000068674151090218725540000006411934908839640193_)"/><path d="m168.6 76.1c-1.3-1.3-2.2-2.9-2.6-4.6l124.7-27.9c.4 1.7.3 3.6-.4 5.3-8.9 22.8-28.2 40.9-53.5 46.5s-50.4-2.4-68.2-19.3z" fill="url(#SVGID_00000049941582273341327140000014675051666346254212_)"/></g><path d="m283.5 81.5c4.4 1.4 9-1.3 10-5.9 4.9-21.6 17-42.2 35.5-58.5l4.7-4.2c3.3-2.9 3.4-7.7.2-10.7-3.2-3-8.4-3.1-11.7-.2l-3.7 3.3c-21.1 18.5-35 42.2-40.5 67-.8 4 1.6 8 5.5 9.2z" fill="url(#SVGID_00000084508619760187677680000005151587563005343668_)"/></g><g><g><g><path d="m393.2 381.5 49.5-51.2 44.3 59.2-24.3 24.2z" fill="url(#SVGID_00000162343639745247234610000006615248224141380518_)"/><path d="m393.2 381.5 49.5-51.2 44.3 59.2-24.3 24.2z" fill="url(#SVGID_00000163766437180170874270000014717801166785553291_)"/><path d="m463.4 358-38.5 38.2-31.7-14.7 49.5-51.2z" fill="url(#SVGID_00000116920231434064147380000008798746234232472236_)"/><path d="m463.4 358-38.5 38.2-31.7-14.7 49.5-51.2z" fill="url(#SVGID_00000083781118565731072420000014361577691655230609_)"/><path d="m390 422 46.1-62.7-58.4-62.9-31.2 31.2v87.9z" fill="url(#SVGID_00000016051269559657439590000016461176085880495258_)"/><path d="m390 422 46.1-62.7-58.4-62.9-31.2 31.2v87.9z" fill="url(#SVGID_00000177457460384042564770000001373276434379451009_)"/><path d="m403.6 324.3-57.1 68.1v-64.8l31.2-31.2z" fill="url(#SVGID_00000113329890144913890410000015905901496718612412_)"/><path d="m403.6 324.3-57.1 68.1v-64.8l31.2-31.2z" fill="url(#SVGID_00000055709372217026334550000014242770292117990579_)"/><path d="m456.3 389.8-62.1 62.1 34.6 21.1 46.3-18.8.7-1z" fill="url(#SVGID_00000183941666478378416460000007961475385928076703_)"/><path d="m456.3 389.8-62.1 62.1 34.6 21.1 46.3-18.8.7-1z" fill="url(#SVGID_00000154415099018696922330000000783333968654490289_)"/><path d="m469.8 433.5-56 30.3-19.6-11.9 62.1-62.1z" fill="url(#SVGID_00000109022945771453206810000002145949348493329077_)"/><path d="m469.8 433.5-56 30.3-19.6-11.9 62.1-62.1z" fill="url(#SVGID_00000101065884306700766630000016190938785460709567_)"/><path d="m453.4 453.5-24.6 19.5 1.7 19.5c.1-.1 21.1-17.3 22.9-39z" fill="url(#SVGID_00000150821681462231060560000012285828442000501633_)"/><path d="m453.4 453.5-24.6 19.5 1.7 19.5c.1-.1 21.1-17.3 22.9-39z" fill="url(#SVGID_00000011017864838254996160000003026339307480707495_)"/><path d="m364 510.5 80-76.6-51.9-63.5-45.6 45.1v72.4z" fill="url(#SVGID_00000145040191324193986680000016705683949891923091_)"/><path d="m364 510.5 80-76.6-51.9-63.5-45.6 45.1v72.4z" fill="url(#SVGID_00000174590155988626583930000001834344147659936412_)"/><g><path d="m385.4 448.9-38.9 38.9 17.5 22.6c0 .1 24.2-33.4 21.4-61.5z" fill="url(#SVGID_00000168828514501725851920000010637288815885633960_)"/><path d="m385.4 448.9-38.9 38.9 17.5 22.6c0 .1 24.2-33.4 21.4-61.5z" fill="url(#SVGID_00000034063794627866817560000016872832952582629549_)"/></g><path d="m414.6 397.9-68.1 66.7v-49.1l45.6-45.1z" fill="url(#SVGID_00000108309708126281761760000009617352455641693086_)"/><path d="m414.6 397.9-68.1 66.7v-49.1l45.6-45.1z" fill="url(#SVGID_00000062913379668568155830000004413652330784478614_)"/><path d="m441.6 335.8c3.9 9.6 7.2 19.6 9.7 30.1.4 1.5 1.4 2.7 2.7 3.4 11.9 5.9 22.3 12.6 30.8 19.9 1.4 1.2 3.5-.1 3-1.9-5.8-21.6-19.2-41.3-38.2-57.3-4.1-3.4-10 .9-8 5.8z" fill="url(#SVGID_00000115492990452411131230000007153122604282579362_)"/><path d="m376.4 301.8c5 13.9 8.6 28.4 10.9 43.2.3 2.1 2 3.8 4.1 4.2 14.3 2.7 27.7 6.3 40 10.7 3.9 1.4 7.7-2.2 6.6-6.2-4.3-15.2-10-29.3-17.1-42.1-.5-.9-1.2-1.6-2.1-2.1-11.2-5.8-23.3-10.7-36.3-14.4-3.9-1.1-7.5 2.8-6.1 6.7z" fill="url(#SVGID_00000101807787258981083480000006048569668337387937_)"/><path d="m457.1 416.2c0 8.4-.5 15.8-1.4 22.3-.2 1.3.5 2.5 1.7 3.1 7.6 3.6 13.8 7.4 18.5 11.6 9.2-12.8 15.2-27 15.2-41.8 0-1.6-.7-3.2-2-4.2-7.9-6.7-17.7-12.9-29.1-18.3-2-1-4.4.7-4.1 2.9.8 8 1.2 16.1 1.2 24.4z" fill="url(#SVGID_00000087380560133173208660000015660733804076844692_)"/><path d="m393.5 424.3c17.2 2.6 32.7 6.1 45.9 10.4 3.1 1 6.4-1.2 6.6-4.5.3-4.5.4-9.2.4-14 0-10.6-.7-21-2-31-.2-1.9-1.5-3.4-3.3-4.1-13.5-4.9-28.6-8.9-44.9-11.8-3.2-.6-6.1 2-6 5.2.7 14.9.3 29.8-1.1 44.3-.2 2.7 1.7 5.1 4.4 5.5z" fill="url(#SVGID_00000031173205532495422580000001360745612892453552_)"/><path d="m430.6 492.4c16.3-9.1 32.9-22.4 44.5-38.2-5.2-.8-10.9-1.6-16.9-2.3-2.8-.3-5.5 1.4-6.4 4.1-5.4 17.1-14 27-21.2 36.4z" fill="url(#SVGID_00000165232108486172751620000010253603148445405097_)"/><path d="m364 510.5c18.3-3.2 51.9-11.6 66.6-18 5.2-10.5 9.3-22.3 12-35.5.7-3.5-1.7-6.9-5.3-7.2-14.3-1.3-30-2.3-47-3-2.9-.1-5.5 1.9-6.1 4.7-4.7 22.6-11.7 42.9-20.2 59z" fill="url(#SVGID_00000024704796016070018790000013677056418058952320_)"/></g><g><path d="m264.4 381.5-49.5-51.2-44.3 59.2 24.3 24.2z" fill="url(#SVGID_00000018219060639878680670000008312766373409017997_)"/><path d="m264.4 381.5-49.5-51.2-44.3 59.2 24.3 24.2z" fill="url(#SVGID_00000057120304140996357640000008349285162816719268_)"/><path d="m194.2 358 38.5 38.2 31.7-14.7-49.5-51.2z" fill="url(#SVGID_00000063591937002148873170000001308560017347851967_)"/><path d="m194.2 358 38.5 38.2 31.7-14.7-49.5-51.2z" fill="url(#SVGID_00000027603710513044250900000007970601033235507584_)"/><path d="m267.6 422-46.1-62.7 58.4-62.9 31.2 31.2v87.9z" fill="url(#SVGID_00000002376587432893398730000011699560686643742365_)"/><path d="m267.6 422-46.1-62.7 58.4-62.9 31.2 31.2v87.9z" fill="url(#SVGID_00000125601803915096192330000003095081959272146843_)"/><path d="m254 324.3 57.1 68.1v-64.8l-31.2-31.2z" fill="url(#SVGID_00000139257819610286523530000010401453561865509817_)"/><path d="m254 324.3 57.1 68.1v-64.8l-31.2-31.2z" fill="url(#SVGID_00000178915694256970003470000018005665273374503594_)"/><path d="m201.3 389.8 62.1 62.1-34.6 21.1-46.3-18.8-.8-1z" fill="url(#SVGID_00000153706305284156147100000009074083603607494329_)"/><path d="m201.3 389.8 62.1 62.1-34.6 21.1-46.3-18.8-.8-1z" fill="url(#SVGID_00000139989064121235751800000014795766673145167038_)"/><path d="m187.8 433.5 56 30.3 19.6-11.9-62.1-62.1z" fill="url(#SVGID_00000033344938159279868710000016574144024254342842_)"/><path d="m187.8 433.5 56 30.3 19.6-11.9-62.1-62.1z" fill="url(#SVGID_00000132788156509356170180000006280048224203198881_)"/><path d="m204.2 453.5 24.6 19.5-1.7 19.5c-.1-.1-21.1-17.3-22.9-39z" fill="url(#SVGID_00000065761508717968945560000009780750415408224155_)"/><path d="m204.2 453.5 24.6 19.5-1.7 19.5c-.1-.1-21.1-17.3-22.9-39z" fill="url(#SVGID_00000011012295327629005050000008038441731143547014_)"/><path d="m293.6 510.5-80-76.6 51.8-63.5 45.7 45.1v72.4z" fill="url(#SVGID_00000043455903943577860410000006202598119804642477_)"/><path d="m293.6 510.5-80-76.6 51.8-63.5 45.7 45.1v72.4z" fill="url(#SVGID_00000120547209612752619320000004000192299069459612_)"/><g><path d="m272.2 448.9 38.9 38.9-17.5 22.6c0 .1-24.2-33.4-21.4-61.5z" fill="url(#SVGID_00000013177510728177507030000016444345975015610526_)"/><path d="m272.2 448.9 38.9 38.9-17.5 22.6c0 .1-24.2-33.4-21.4-61.5z" fill="url(#SVGID_00000093170519057816598670000005713555639284562095_)"/></g><path d="m243 397.9 68.1 66.7v-49.1l-45.7-45.1z" fill="url(#SVGID_00000024706027628535549180000012307335395240852097_)"/><path d="m243 397.9 68.1 66.7v-49.1l-45.7-45.1z" fill="url(#SVGID_00000147180602787839532710000001850066212267832448_)"/><path d="m216 335.8c-3.9 9.6-7.2 19.6-9.7 30.1-.4 1.5-1.4 2.7-2.7 3.4-11.9 5.9-22.3 12.6-30.8 19.9-1.4 1.2-3.5-.1-3-1.9 5.8-21.6 19.2-41.3 38.2-57.3 4.1-3.4 10 .9 8 5.8z" fill="url(#SVGID_00000043444690906370385240000016097591611725933241_)"/><path d="m281.2 301.8c-5 13.9-8.6 28.4-10.9 43.2-.3 2.1-2 3.8-4.1 4.2-14.3 2.7-27.7 6.3-40 10.7-3.9 1.4-7.7-2.2-6.6-6.2 4.3-15.2 10-29.3 17.1-42.1.5-.9 1.2-1.6 2.1-2.1 11.2-5.8 23.3-10.7 36.3-14.4 3.9-1.1 7.5 2.8 6.1 6.7z" fill="url(#SVGID_00000151524597716868727200000017965609947059262884_)"/><path d="m200.5 416.2c0 8.4.5 15.8 1.4 22.3.2 1.3-.5 2.5-1.7 3.1-7.6 3.6-13.8 7.4-18.5 11.6-9.2-12.8-15.2-27-15.2-41.8 0-1.6.7-3.2 2-4.2 7.9-6.7 17.7-12.9 29.1-18.3 2-1 4.4.7 4.1 2.9-.8 8-1.2 16.1-1.2 24.4z" fill="url(#SVGID_00000163754551070814126470000007197878001068442517_)"/><path d="m264.1 424.3c-17.2 2.6-32.7 6.1-45.9 10.4-3.1 1-6.4-1.2-6.6-4.5-.3-4.5-.4-9.2-.4-14 0-10.6.7-21 2-31 .2-1.9 1.5-3.4 3.3-4.1 13.5-4.9 28.6-8.9 44.9-11.8 3.2-.6 6.1 2 6 5.2-.7 14.9-.3 29.8 1.1 44.3.2 2.7-1.7 5.1-4.4 5.5z" fill="url(#SVGID_00000044889223632394604500000001298261285308432057_)"/><path d="m227 492.4c-16.3-9.1-32.9-22.4-44.5-38.2 5.2-.8 10.9-1.6 16.9-2.3 2.8-.3 5.5 1.4 6.4 4.1 5.4 17.1 14 27 21.2 36.4z" fill="url(#SVGID_00000093894282180951172630000003105375704421109379_)"/><path d="m293.6 510.5c-18.3-3.2-51.9-11.6-66.6-18-5.2-10.5-9.3-22.3-12-35.5-.7-3.5 1.7-6.9 5.3-7.2 14.3-1.3 30-2.3 47-3 2.9-.1 5.5 1.9 6.1 4.7 4.7 22.6 11.7 42.9 20.2 59z" fill="url(#SVGID_00000084526961083520309470000005833382635544635800_)"/></g><path d="m328.8 334.5-39 8.9 21.3 49h17.7 17.7l21.3-49z" fill="url(#SVGID_00000002371669680614399860000012580767407661235888_)"/><path d="m328.8 334.5-39 8.9 21.3 49h17.7 17.7l21.3-49z" fill="url(#SVGID_00000060014895751311767110000018297111028343983490_)"/><path d="m328.8 334.5-39 8.9 21.3 49h17.7 17.7l21.3-49z" fill="url(#SVGID_00000053530953851148880050000018185817521077343661_)"/><path d="m368.9 339.6c.4 3.2-2.3 6-5.5 5.7-11.2-1.1-22.7-1.7-34.5-1.7s-23.4.6-34.5 1.7c-3.2.3-5.9-2.5-5.5-5.7 2.2-17.9 5.3-34.1 8.9-48 .5-2 2.2-3.5 4.3-3.8 8.8-1 17.8-1.5 26.9-1.5 9.2 0 18.1.5 26.9 1.5 2.1.2 3.8 1.7 4.3 3.8 3.4 13.8 6.4 30 8.7 48z" fill="url(#SVGID_00000036951054472125062090000015925885987774495880_)"/><path d="m328.8 415.2-43.1 4.7 25.4 37.2h17.7 17.7l25.3-37.2z" fill="url(#SVGID_00000118362620930038549510000002032523573661776019_)"/><path d="m328.8 415.2-43.1 4.7 25.4 37.2h17.7 17.7l25.3-37.2z" fill="url(#SVGID_00000162327808839736601650000014304957859222086549_)"/><path d="m328.8 415.2-43.1 4.7 25.4 37.2h17.7 17.7l25.3-37.2z" fill="url(#SVGID_00000018202002058316571980000002659893725103126657_)"/><path d="m373.4 416.2s0 .1 0 0c0 3-2.5 5.4-5.5 5.1-12.5-1-25.6-1.6-39.1-1.6s-26.6.6-39.1 1.6c-3 .2-5.5-2.1-5.5-5.1 0 0 0 0 0-.1 0-16 .6-31.5 1.6-46.3.2-2.5 2.1-4.4 4.5-4.7 12.4-1.2 25.3-1.9 38.5-1.9s26.1.6 38.5 1.9c2.5.2 4.4 2.2 4.5 4.7 1.1 14.9 1.6 30.4 1.6 46.4z" fill="url(#SVGID_00000085238679744335772500000000623284833524764078_)"/><path d="m366.6 446c3.4.1 6 3 5.8 6.3-1.4 23.5-4.4 42.8-8.4 58.1-9.9.9-20.1 1.4-30.5 1.5-1.6 0-3.1 0-4.7 0s-3.1 0-4.7 0c-10.4-.1-20.6-.6-30.5-1.5-4-15.4-6.9-34.7-8.4-58.2-.2-3.4 2.4-6.3 5.8-6.3 12.2-.3 24.8-.5 37.8-.5 12.9.1 25.6.2 37.8.6z" fill="url(#SVGID_00000031197625363273471120000003368828142225263290_)"/></g><path d="m489 407.2c-7.9-6.7-17.7-12.9-29.1-18.3-1.3-.6-2.8-.1-3.6.9l-10.4 10.4c-.3-5.1-.8-10-1.5-15-.2-1.9-1.5-3.4-3.3-4.1-13.5-4.9-28.6-8.9-44.9-11.8-1.9-.3-3.7.4-4.8 1.7l-18.6 18.4c-.3-6.6-.6-13.1-1.1-19.5-.2-2.5-2.1-4.4-4.5-4.7-12.4-1.2-25.3-1.9-38.5-1.9s-26.1.6-38.5 1.9c-2.5.2-4.4 2.2-4.5 4.7-.4 6.4-.8 12.9-1.1 19.5l-18.5-18.4c-1.1-1.3-2.9-2.1-4.8-1.7-16.3 3-31.3 7-44.9 11.8-1.8.6-3 2.2-3.3 4.1-.7 4.9-1.1 9.9-1.5 15l-10.4-10.4c-.8-1.1-2.2-1.6-3.6-.9-11.5 5.4-21.3 11.6-29.1 18.3-1.2 1.1-2 2.6-2 4.2 0 14.8 6 29.1 15.2 41.8l.7 1c11.7 15.8 28.3 29.1 44.5 38.2 14.7 6.5 48.2 14.8 66.6 18 9.9.9 20.1 1.4 30.5 1.5h4.7 4.7c10.4-.1 20.6-.6 30.5-1.5 18.3-3.2 51.9-11.6 66.6-18 16.3-9.1 32.9-22.4 44.5-38.2l.7-1c9.2-12.8 15.2-27 15.2-41.8.1-1.7-.6-3.2-1.9-4.2z" fill="url(#SVGID_00000060716300053026309020000012084201222062548909_)"/><path d="m489 407.2c-7.9-6.7-17.7-12.9-29.1-18.3-1.3-.6-2.8-.1-3.6.9l-10.4 10.4c-.3-5.1-.8-10-1.5-15-.2-1.9-1.5-3.4-3.3-4.1-13.5-4.9-28.6-8.9-44.9-11.8-1.9-.3-3.7.4-4.8 1.7l-18.6 18.4c-.3-6.6-.6-13.1-1.1-19.5-.2-2.5-2.1-4.4-4.5-4.7-12.4-1.2-25.3-1.9-38.5-1.9s-26.1.6-38.5 1.9c-2.5.2-4.4 2.2-4.5 4.7-.4 6.4-.8 12.9-1.1 19.5l-18.5-18.4c-1.1-1.3-2.9-2.1-4.8-1.7-16.3 3-31.3 7-44.9 11.8-1.8.6-3 2.2-3.3 4.1-.7 4.9-1.1 9.9-1.5 15l-10.4-10.4c-.8-1.1-2.2-1.6-3.6-.9-11.5 5.4-21.3 11.6-29.1 18.3-1.2 1.1-2 2.6-2 4.2 0 14.8 6 29.1 15.2 41.8l.7 1c11.7 15.8 28.3 29.1 44.5 38.2 14.7 6.5 48.2 14.8 66.6 18 9.9.9 20.1 1.4 30.5 1.5h4.7 4.7c10.4-.1 20.6-.6 30.5-1.5 18.3-3.2 51.9-11.6 66.6-18 16.3-9.1 32.9-22.4 44.5-38.2l.7-1c9.2-12.8 15.2-27 15.2-41.8.1-1.7-.6-3.2-1.9-4.2z" fill="url(#SVGID_00000081640473247157432840000010740211361154712762_)"/></g></g></svg>